<?xml version="1.0" encoding="utf-8"?><svg viewBox="0 0 293 50" xmlns="http://www.w3.org/2000/svg" xmlns:xlink="http://www.w3.org/1999/xlink"><style>:root>svg{display:none}:root>svg:target{display:block}</style><svg viewBox="0 0 50 50" id="plane" xmlns="http://www.w3.org/2000/svg"><path d="M48.437 30.46c-2.71.656-4.932 1.92-6.806 3.724-1.373-2.34-3.313-4.583-5.04-6.603-1.097-1.284-2.477-3.178-4.297-3.543a1.23 1.23 0 00.46-.697 6.327 6.327 0 011.256-2.463c.3-.358.675-.664 1.039-.958.167-.135.373-.208.529-.357.203-.195.304-.491.44-.734 1.857-1.96 3.458-4.66 4.873-6.64 1.917-2.683 4.573-6.814 2.413-10.015C40.96-1.3 35.914.03 32.972 1.756c-4.492 2.636-7.678 6.97-10.704 11.024a1.315 1.315 0 00-.251-.486c-3.28-4.06-15.18-15.001-20.534-8.316-5.264 6.57 4.653 15.833 11.494 18.217-4.916 2.788-8.442 8.531-10.064 13.573-.862 2.677-1.269 9.192 2.39 10.406 3.304 1.096 6.644-2.683 8.557-4.684 3.084-3.227 5.674-6.845 8.428-10.326.048.193.123.403.263.66.886 1.622 2.31 2.774 3.805 3.873 1.953 1.437 4.158 2.572 6.341 3.648 1.228.604 2.688 1.48 4.135 1.748-2.087 2.235-3.249 4.541-2.817 7.725.126.927.96 1.458 1.884 1.034 3.594-1.644 6.523-4.913 8.89-7.884 2.367-2.971 5.001-6.502 5.21-10.37.042-.785-.818-1.32-1.562-1.139zm-6.192 10.736c-1.636 1.974-3.557 4.073-5.796 5.556.137-1.976.858-3.773 1.865-5.664.01-.017.01-.034.016-.052.538-.295.685-1 .226-1.516-.822-.925-2.113-1.32-3.237-1.825a62.21 62.21 0 01-5.178-2.631c-1.692-.96-3.285-2.068-4.679-3.398-.403-.385-2.066-1.979-2.14-2.53-.032-.244-.367-.335-.487-.12-.535-.51-1.592-.655-2.2.101-3.867 4.803-7.553 11.388-13.217 14.445-3.31 1.787-1.968-6.62-1.543-7.865 1.636-4.797 5.137-9.2 8.671-12.857a.722.722 0 00.15-.222c.846-.049 1.39-1.233.472-1.629C10.527 18.987-.02 11.478 3.37 5.789 6.648.292 17.945 11.667 20.236 14c.527.535 1.147.466 1.572.122.246.314.772.465 1.111.124 2.874-2.886 5.713-5.766 8.837-8.411 1.685-1.427 3.558-2.675 5.756-3.22 2.188-.544 4.18.863 3.78 2.972-.597 3.146-3.3 6.104-5.258 8.577-.884 1.118-2.776 2.783-3.108 4.4-.19.122-.377.25-.565.395-1.181.902-1.886 2.313-2.293 3.674-.344 1.15.869 1.844 1.792 1.606.015.164.263.226.37.077-.81 1.111 1.925 4.222 2.611 5.218 1.6 2.324 3.24 4.726 4.994 6.946-.023.872 1.335 1.644 2.053.837 1.58-1.778 3.214-3.127 5.325-3.98-.844 2.892-3.148 5.665-4.968 7.86z"/></svg><svg viewBox="0 0 55 50" id="sun" xmlns="http://www.w3.org/2000/svg"><path d="M54.361 35.774c-2.138-.392-3.75 1.012-5.768-1.08-.528-.546-1.29-.238-1.531.427-1.733 4.775-5.337 2.468-6.988-.877-.32-.647-1.226-.59-1.559 0-1.141 2.95-3.34 3.313-6.594 1.09-.517-.478-1.365-.317-1.56.435-1.416 5.482-6.368 3.976-7.894-.529-.077-.227-.242-.337-.413-.357-.348-.459-1.134-.596-1.405.047-1.951 4.633-5.573 3.924-7.828.007-.407-.707-1.247-.462-1.514.209-1.896 4.765-7.42 4.656-7.322-1.073.011-.634-.888-.759-1.04-.148-1.78 7.139 6.492 8.377 9.358 3.136 2.96 3.555 7.398 4.284 9.514-.5 1.806 5.247 7.705 6.279 9.898 1.059 2.784 1.964 5.436 1.656 7.529-1.135 2.552 3.847 7.099 5.265 9.118.517 1.852 1.324 3.081.398 5.761.624 1 .086 1.23-1.67.238-1.852zm-3.349 7.693c-.839 1.455-1.129 2.759-2.925 3.47-2.212.877-4.413-1.214-5.502-2.928-.376-.592-1.288-.706-1.64 0-1.539 3.092-4.948 2.337-6.402-.647-.358-.734-1.567-.603-1.716.236-.817 4.626-4.487 5.116-6.945 1.763.268-.903-1.131-1.517-1.513-.634-2.063 4.78-6.091 4.246-8.43-.02-.405-.74-1.314-.48-1.576.218-1.9 5.064-4.86 2.655-6.52-.83-.324-.68-1.246-.444-1.441.199-.908 2.993-2.403 3.552-4.922 4.327-.475.146-.401 1.015.12.942 2.887-.407 4.463-.949 5.643-3.219 2.423 3.997 5.806 4.813 8.077.608 2.943 3.891 7.672 4.335 10.015-.295 2.602 3.739 6.967 3.555 8.715-.52 2.254 2.81 5.536 3.204 7.807.06 3.379 3.589 10.29 4.392 10.536-2.334.03-.803-1.01-1.04-1.381-.396zM15.522 7.505c-.566.174-.79.623-.772 1.075-4.008.626-6.604 4.803-6.913 9.004-.424 5.749 4.2 9.126 9.212 8.697 5.126-.438 8.46-5.278 8.31-10.48-.151-5.196-4.812-9.843-9.837-8.296zm.834 16.148c-3.679.319-6.059-2.305-5.989-6.069.074-3.944 2.936-6.545 6.253-7.585.061-.019.105-.052.154-.08 3.234.532 5.68 1.832 6.023 5.881.357 4.2-2.563 7.516-6.44 7.853zM10.857 7.331C10.254 6.638 9.585 6.03 8.9 5.428c-.678-.597-1.398-1.75-2.355-1.656-.507.05-.85.39-.885.935-.068 1.036.9 1.544 1.602 2.072.804.604 1.64 1.144 2.386 1.83.828.761 1.96-.414 1.209-1.278zM5.31 10.45c.321.04.037-.009-.048-.037-.13-.043-.258-.095-.386-.147a14.848 14.848 0 01-.43-.184l-.03-.013a1.16 1.16 0 00-.67-.598c-.538-.179-1.355-.605-1.936-.412-.328.109-.673.396-.736.778v.002c-.061.361-.035.832.27 1.083.17.14.37.238.577.323-.168 0-.032.008.12.046.108.039.214.079.325.11.267.095.534.191.8.29a.85.85 0 00.462.033c.547.153 1.146.327 1.682.293.974-.063.933-1.448 0-1.567zm-1.67 8.809c-.41.362-.887.646-1.352.918-.24.141-.49.287-.747.39-.155.061-.4.01-.06.075-.17-.032-.33-.036-.497-.055-1.415-.161-1.286 2.537.273 2.135.575-.148 1.162-.727 1.65-1.098.567-.43 1.133-.9 1.6-1.45.534-.628-.265-1.448-.867-.915zm3.605 5.347c-.48.777-.916 1.582-1.372 2.374-.494.858-1.331 1.498-1.441 2.525-.07.655.61.98 1.111.894 1.026-.176 1.527-1.555 1.902-2.449.387-.921.625-1.888.935-2.84.238-.731-.766-1.102-1.135-.504zm9.698 2.793c-.1-.549-.904-.523-1.022 0-.308 1.372-.67 2.734-.973 4.108-.074.331-.01.715.238.954-.04-.058-.036-.046.014.034.297.512.92.453 1.229 0-.282.414.199-.201.216-.233.113-.204.123-.419.135-.648.025-.475.078-.948.12-1.422.085-.922.212-1.875.043-2.793zm10.664.811c-.734-1.113-1.9-1.827-2.567-2.975-.457-.787-1.503-.102-1.15.71.306.703.773 1.287 1.256 1.862.23.275.466.543.668.842.277.407.39.864.93.944.31.045.663-.02.82-.353l.043-.093c.134-.284.185-.657 0-.937zm4.273-8.3c-1.236.07-2.473.135-3.708.2-1.112.059-1.112 1.764 0 1.823 1.236.065 2.471.13 3.707.199 1.357.075 1.357-2.297 0-2.222zm0-12.811c-1.121-.025-2.027 1.397-2.7 2.223-.721.887-1.355 1.849-2.091 2.725-.563.668.304 1.595.931.983.742-.725 1.416-1.522 2.128-2.279.402-.427.819-.858 1.275-1.22.562-.446 1.003-.59 1.252-1.33.186-.548-.291-1.091-.795-1.102zm-5.387-5.803c-.663.45-1.106 1.18-1.562 1.847-.531.778-1.037 1.56-1.652 2.27-.696.804.387 1.96 1.135 1.198.58-.592 1.094-1.237 1.598-1.902.54-.713 1.237-1.367 1.682-2.145.447-.78-.452-1.775-1.2-1.268zM18.203.227c-.323-.303-.747-.303-1.07 0-.635.593-.342 1.628-.29 2.418.061.906.127 1.81.204 2.715.073.844 1.169.844 1.242 0 .078-.905.143-1.81.203-2.715.053-.79.346-1.826-.289-2.418z"/></svg><svg viewBox="0 0 50 50" id="wawe" xmlns="http://www.w3.org/2000/svg"><path d="M43.996 47.722l-.438-.023c.266-.576-.08-1.385-.705-1.538-1.837-.448-3.73-.216-5.625-.78-3.04-.905-5.871-2.558-8.485-4.347-5.161-3.535-10.673-10.072-3.535-14.71.844-.548.599-2.187-.552-2.073-1.792.179-3.586.276-5.382.378.95-.54 1.721-1.8 2.318-2.546 1.205-1.507 2.59-2.11 4.496-2.225 1.196-.073 1.373-1.66.275-2.07-.206-.076-.407-.394-.602-.531a8.844 8.844 0 00-1.441-.808 25.27 25.27 0 00-1.437-.59c2.395-.842 3.9-3.75 6.787-3.879 1.05-.046 1.513-1.25.828-2.035-.734-.842-1.282-1.716-1.889-2.55a21.576 21.576 0 014.51.24c.51.082.946-.682.385-.93-2.25-.998-4.699-1.11-7.094-1.477-1.371-.21-2.07 1.4-.932 2.25.913.681 1.518 1.589 2.134 2.501a8.906 8.906 0 00-2.746 1.411c-1.3.97-2.909 1.98-3.856 3.307-.311.436-.052 1.05.383 1.284a.38.38 0 00.185.278c.588.343 1.188.666 1.777 1.007.123.071.543.33.94.597-1.404.209-2.672.741-3.799 1.811-.598.569-1.093 1.253-1.633 1.877-.689.796-1.468 1.252-1.61 2.356-.073.567.494.92.956.973.081.009.157-.011.237-.014-.371.388-.215 1.172.48 1.212.9.052 1.8.102 2.7.16-4.287 4.237-1.863 10.12 2.706 14.476 1.674 1.594 5.45 4.538 9.349 6.471-12.52-.864-26.109-3.45-30.122-16.84-2.328-7.766 1.53-16.2 6.79-21.697 2.776-2.9 6.329-4.818 10.182-5.706 4.591-1.06 8.21 1.064 12.215 2.894 1.015.463 2.017-.706 1.213-1.598-5.633-6.244-15.294-4.79-21.67-.768C4.8 8.19.196 17.148.003 25.984c-.2 9.18 6.78 17.267 14.764 20.641 9.328 3.942 19.354 3.605 29.228 3.025 1.22-.072 1.222-1.858 0-1.928z"/><path d="M49.81 44.14c-.924-2.14-2.494-3.968-4.319-5.554.019-3.678.063-7.358.032-11.036a1.77 1.77 0 00-.041-.365c.132-1.383.03-2.73-.207-4.08l.006-.003c.858-.236 1.554-.943 2.234-1.495a29.07 29.07 0 001.612-1.379 4.78 4.78 0 00.299-.273c1.488-1.46-.77-3.749-2.263-2.302-.223.216-.461.415-.699.612-.158.131-.318.259-.477.387a55.257 55.257 0 01-.447.35c-.337.262-.707.512-1.053.787-.242-.847-.549-1.74-1.013-2.441.38-.182.747-.383 1.074-.616 1.36-.971 2.552-2.651 1.901-4.422-.383-1.04-1.117-1.78-2.038-2.356-.202-.127-.428-.243-.65-.36a3.878 3.878 0 00-.463-.672c-.088-.1-.177-.177-.265-.26.034-.275-.129-.575-.47-.561-.142.006-.282.003-.423.002a1.889 1.889 0 00-1.073-.033c-1.137-.049-2.206-.035-3.205.874-.67.61-.965 1.393-.972 2.232-.938 2.26-1.191 5.045 1.207 6.344.39.212.813.34 1.247.43-.25.865-.438 1.736-.588 2.614-1.558.35-3.175 1.251-4.49 1.797-1.931.612-1.128 3.648.837 3.09 1.111-.315 2.179-.771 3.25-1.204a57.423 57.423 0 00-.086 2.574c-.002.19.053.4.137.6-.278.866-.565 1.849-.752 2.814-.25.88-.503 1.76-.776 2.634-2.64-1.467-6.128-3-8.395-1.478l-.02-.026c-.826-1.117-2.552-.175-1.879 1.117C30.81 40.6 39.197 45.151 47.828 46.764c1.6.299 2.614-1.156 1.982-2.623zm-18.881-9.863c.296.066.605.167.908.252-.037.238-.001.486.125.702.029.048.065.092.094.14a28.98 28.98 0 01-1.127-1.094zm8.67.187a.985.985 0 00.239-.212c.543-.663.671-1.424.779-2.228a27.96 27.96 0 001.254-3.156c.197.028.399.043.598.063-.009 2.455.001 4.91.018 7.366a60.367 60.367 0 00-2.888-1.833z"/></svg><svg viewBox="0 0 200 15" id="wawe-1" xmlns="http://www.w3.org/2000/svg"><path d="M194.607 1.233c-3.274 3.066-4.406 5.814-11.419 7.313-8.633 1.846-17.226-2.56-21.48-6.171-1.468-1.247-5.028-1.487-6.399 0-6.009 6.515-19.318 4.924-24.997-1.364-1.396-1.547-6.117-1.27-6.697.499-3.191 9.747-17.519 10.779-27.114 3.714 1.047-1.902-4.416-3.197-5.906-1.335-8.055 10.072-23.78 8.946-32.908-.042-1.584-1.56-5.133-1.012-6.156.46C44.113 14.975 32.559 9.9 26.076 2.555c-1.263-1.431-4.864-.936-5.625.419-3.543 6.308-9.38 7.486-19.214 9.118-1.852.308-1.566 2.14.47 1.985 11.268-.856 17.422-1.999 22.027-6.782 9.461 8.422 22.67 10.142 31.532 1.28 11.493 8.2 29.953 9.136 39.1-.62 10.16 7.877 27.199 7.49 34.022-1.096 8.802 5.92 21.614 6.751 30.478.127 13.191 7.56 40.17 9.253 41.131-4.92.12-1.69-3.942-2.191-5.39-.834z"/></svg><svg viewBox="0 0 247 15" id="wawe-2" xmlns="http://www.w3.org/2000/svg"><path d="M240.34 1.233c-4.044 3.066-5.442 5.814-14.103 7.313-10.661 1.846-21.274-2.56-26.528-6.171-1.812-1.247-6.209-1.487-7.902 0-7.422 6.515-23.858 4.924-30.871-1.364-1.724-1.547-7.555-1.27-8.272.499-3.941 9.747-21.635 10.779-33.486 3.714 1.294-1.902-5.454-3.197-7.293-1.335-9.948 10.072-29.37 8.946-40.641-.042-1.957-1.56-6.34-1.012-7.603.46C54.48 14.975 40.21 9.9 32.204 2.555c-1.56-1.431-6.007-.936-6.947.419-4.376 6.308-11.585 7.486-23.73 9.118-2.287.308-1.934 2.14.581 1.985 13.916-.856 21.516-1.999 27.204-6.782 11.684 8.422 27.996 10.142 38.942 1.28 14.193 8.2 36.992 9.136 48.288-.62 12.548 7.877 33.59 7.49 42.017-1.096 10.871 5.92 26.693 6.751 37.64.127 16.291 7.56 49.61 9.253 50.798-4.92.148-1.69-4.869-2.191-6.657-.834z"/></svg><svg viewBox="0 0 293 15" id="wawe-3" xmlns="http://www.w3.org/2000/svg"><path d="M285.099 1.233c-4.796 3.066-6.454 5.814-16.729 7.313-12.647 1.846-25.235-2.56-31.468-6.171-2.15-1.247-7.366-1.487-9.374 0-8.804 6.515-28.301 4.924-36.62-1.364-2.046-1.547-8.963-1.27-9.812.499-4.675 9.747-25.665 10.779-39.723 3.714 1.535-1.902-6.469-3.197-8.651-1.335-11.801 10.072-34.839 8.946-48.21-.042-2.321-1.56-7.52-1.012-9.02.46C64.626 14.975 47.7 9.9 38.203 2.555c-1.85-1.431-7.126-.936-8.242.419-5.19 6.308-13.742 7.486-28.148 9.118-2.713.308-2.294 2.14.69 1.985 16.506-.856 25.522-1.999 32.268-6.782 13.861 8.422 33.211 10.142 46.195 1.28 16.836 8.2 43.881 9.136 57.281-.62 14.885 7.877 39.846 7.49 49.842-1.096 12.895 5.92 31.665 6.751 44.65.127 19.326 7.56 58.849 9.253 60.258-4.92.176-1.69-5.775-2.191-7.897-.834z"/></svg></svg>